HIERARCHY
ROOT ui
{
	 OFFSET 0 0 0
	 CHANNELS 3 XPosition YPosition Z Position
	 EndSite
	 {
	 OFFSET 0 -1 0
	 }
}
ROOT li
{
	 OFFSET 0 0 0
	 CHANNELS 3 XPosition YPosition Z Position
	 EndSite
	 {
	 OFFSET 0 -1 0
	 }
}
ROOT ul
{
	 OFFSET 0 0 0
	 CHANNELS 3 XPosition YPosition Z Position
	 EndSite
	 {
	 OFFSET 0 -1 0
	 }
}
ROOT ll
{
	 OFFSET 0 0 0
	 CHANNELS 3 XPosition YPosition Z Position
	 EndSite
	 {
	 OFFSET 0 -1 0
	 }
}
ROOT tt
{
	 OFFSET 0 0 0
	 CHANNELS 3 XPosition YPosition Z Position
	 EndSite
	 {
	 OFFSET 0 -1 0
	 }
}
ROOT tb
{
	 OFFSET 0 0 0
	 CHANNELS 3 XPosition YPosition Z Position
	 EndSite
	 {
	 OFFSET 0 -1 0
	 }
}
ROOT td
{
	 OFFSET 0 0 0
	 CHANNELS 3 XPosition YPosition Z Position
	 EndSite
	 {
	 OFFSET 0 -1 0
	 }
}
ROOT v
{
	 OFFSET 0 0 0
	 CHANNELS 3 XPosition YPosition Z Position
	 EndSite
	 {
	 OFFSET 0 -1 0
	 }
}
ROOT bn
{
	 OFFSET 0 0 0
	 CHANNELS 3 XPosition YPosition Z Position
	 EndSite
	 {
	 OFFSET 0 -1 0
	 }
}
MOTION
Frames: 13
Frame Time: 0.002
0.015603405952453613	-0.0010795819759368897	0		0.63838623046875	-2.50457763671875	0		-0.7997359008789062	0.27978131103515624	0		-0.12145819091796875	-3.014524169921875	0		1.5075257568359375	-0.9949954223632812	0		2.87072412109375	0.2900007934570312	0		4.5642734375	0.7715355834960937	0		5.9146982421875	0.49356353759765625	0		-0.17360150146484374	5.928958984375	0		
-0.007385798931121826	0.0031478080749511718	0		0.5639668579101562	-2.4666328125	0		-0.78980859375	0.27853045654296876	0		-0.11626888275146484	-3.008674560546875	0		1.5136246337890624	-0.9880757446289062	0		2.89480859375	0.300751708984375	0		4.564375	0.7856907958984375	0		5.930826171875	0.5085760803222656	0		-0.19189515686035155	5.9331103515625	0		
0.01859660720825195	0.002716052055358887	0		0.6389092407226562	-2.479681396484375	0		-0.7947711791992188	0.28346832275390627	0		-0.12018721771240234	-3.0127158203125	0		1.5008311767578124	-0.9749187622070312	0		2.874714111328125	0.2960710754394531	0		4.57513525390625	0.7716849365234375	0		5.92258837890625	0.4938886413574219	0		-0.17523251342773438	5.9307880859375	0		
-0.010425060272216798	-2.1250001154839994E-6	0		0.5861121215820313	-2.4740556640625	0		-0.7898353271484375	0.2782650146484375	0		-0.12105558013916015	-3.01480859375	0		1.4888936767578125	-0.97479052734375	0		2.87063720703125	0.29015963745117185	0		4.56611474609375	0.7719190673828125	0		5.91768603515625	0.5021332702636718	0		-0.18964089965820313	5.9198642578125	0		
0.011567049026489258	-0.004404231071472168	0		0.63717236328125	-2.481810791015625	0		-0.7898013305664062	0.2781160888671875	0		-0.12087526702880859	-3.014927734375	0		1.492035400390625	-0.9708778686523437	0		2.883577880859375	0.283003662109375	0		4.566126953125	0.772008056640625	0		5.9177099609375	0.5022822875976563	0		-0.18985749816894532	5.9197421875	0		
-0.01030146312713623	-2.4545900523662565E-4	0		0.5864474487304687	-2.474247802734375	0		-0.8518477783203126	0.2697652587890625	0		-0.11964793395996094	-3.01307470703125	0		1.492152587890625	-0.970945068359375	0		2.87481396484375	0.29611016845703125	0		4.55908154296875	0.765159423828125	0		5.93085693359375	0.5092269592285156	0		-0.19382777404785156	5.93465673828125	0		
0.015790830612182616	-0.0017285850048065186	0		0.590712890625	-2.469422607421875	0		-0.8467117919921875	0.27252349853515623	0		-0.11537525177001953	-3.00927587890625	0		1.49533544921875	-0.968072509765625	0		2.88781787109375	0.2889053955078125	0		4.57134130859375	0.779029296875	0		5.92706298828125	0.5183572387695312	0		-0.15988148498535157	5.93906201171875	0		
-0.0070184111595153805	0.00240962290763855	0		0.5888948364257812	-2.472536865234375	0		-0.851622802734375	0.26939926147460935	0		-0.11716199493408203	-3.011414306640625	0		1.4924664306640625	-0.9711431884765624	0		2.903943603515625	0.2886351013183594	0		4.56245263671875	0.779140869140625	0		5.9222861328125	0.5264622192382813	0		-0.19021659851074219	5.918287109375	0		
0.016092082977294923	-0.0020656280517578124	0		0.5871080322265625	-2.47467041015625	0		-0.8514666137695313	0.2691961364746094	0		-0.11893254089355469	-3.013569091796875	0		1.5077236328125	-0.9664702758789062	0		2.9010087890625	0.28158477783203123	0		4.5734111328125	0.7649597778320313	0		5.92633056640625	0.518412353515625	0		-0.19021792602539062	5.91910400390625	0		
-0.009703798294067383	-9.237639904022217E-4	0		0.5873621215820313	-2.474849609375	0		-0.845349853515625	0.2639019775390625	0		-0.13057276916503907	-3.0066123046875	0		1.5018480224609374	-0.9735470581054687	0		2.893203857421875	0.2825698547363281	0		4.557671875	0.772091796875	0		5.93140234375	0.5103097229003907	0		-0.19019764709472656	5.917904296875	0		
0.01649094772338867	-0.0024715330600738527	0		0.5636940307617188	-2.4697392578125	0		-0.8351597290039062	0.2625419006347656	0		-0.11838672637939453	-3.013981689453125	0		1.484145751953125	-0.9684934692382813	0		2.90223876953125	0.2693077392578125	0		4.5578642578125	0.771982177734375	0		5.93570361328125	0.5181787109375	0		-0.19293995666503908	5.9317255859375	0		
-0.006229658126831055	0.0015953520536422729	0		0.5939896240234375	-2.468344970703125	0		-0.82583642578125	0.27018008422851564	0		-0.11302731323242188	-3.0082783203125	0		1.4835703125	-0.9546834106445312	0		2.914664794921875	0.2849767761230469	0		4.56707470703125	0.7717222900390625	0		5.9361259765625	0.5340593872070313	0		-0.15776397705078124	5.936041015625	0		
-0.005993146896362305	0.0013485859632492065	0		0.5942637939453125	-2.46858251953125	0		-0.82560400390625	0.2699208068847656	0		-0.13958819580078125	-2.99618017578125	0		1.489936767578125	-0.9459854125976562	0		2.911678466796875	0.2678145751953125	0		4.56539013671875	0.7785704345703125	0		5.9402509765625	0.5258524169921875	0		-0.15860499572753906	5.9368046875	0		
